<svg width="205" height="122" viewBox="0 0 205 122" fill="none" xmlns="http://www.w3.org/2000/svg">
<g clip-path="url(#clip0)">
<path d="M5.84345 18.2114C5.84345 20.3777 6.65829 20.9879 7.87955 20.9879C9.23628 20.9879 10.1189 20.175 10.1189 18.1776C10.1189 18.0424 10.1866 18.0086 10.3221 18.0086L15.2768 19.1594C15.4123 19.1932 15.4462 19.2945 15.4462 19.3959C14.9023 23.83 11.1708 24.8456 7.87955 24.8456C4.04643 24.8456 0.279053 23.4921 0.279053 18.2114V6.63424C0.279053 1.35348 4.04643 0 7.87955 0C11.1708 0 14.9043 1.01561 15.4462 5.44969C15.4462 5.55106 15.4123 5.65242 15.2768 5.6862L10.3221 6.83696C10.1866 6.83696 10.1189 6.80317 10.1189 6.66802C10.1189 4.6706 9.23628 3.85772 7.87955 3.85772C6.65829 3.85772 5.84345 4.46787 5.84345 6.63424V18.2114Z" fill="#004450"/>
<path d="M31.972 18.2789C31.972 23.6611 27.8321 24.8456 24.3715 24.8456C20.9109 24.8456 16.771 23.6611 16.771 18.2789V6.56666C16.771 1.18454 20.9089 0 24.3715 0C27.8321 0 31.972 1.18454 31.972 6.56666V18.2789ZM24.3715 3.8597C23.1502 3.8597 22.3354 4.40229 22.3354 6.56865V18.2809C22.3354 20.4473 23.1502 20.9899 24.3715 20.9899C25.5927 20.9899 26.4076 20.4473 26.4076 18.2809V6.56666C26.4076 4.4003 25.5927 3.8597 24.3715 3.8597Z" fill="#004450"/>
<path d="M39.4709 20.4113H46.7327C46.8682 20.4113 46.9359 20.4789 46.9359 20.614V24.0663C46.9359 24.2014 46.8682 24.269 46.7327 24.269H34.1097C33.9742 24.269 33.9065 24.2014 33.9065 24.0663V0.778896C33.9065 0.643746 33.9742 0.576172 34.1097 0.576172H39.2677C39.4032 0.576172 39.4709 0.643746 39.4709 0.778896V20.4113Z" fill="#004450"/>
<path d="M54.0961 20.4113H61.358C61.4934 20.4113 61.5612 20.4789 61.5612 20.614V24.0663C61.5612 24.2014 61.4934 24.269 61.358 24.269H48.735C48.5995 24.269 48.5317 24.2014 48.5317 24.0663V0.778896C48.5317 0.643746 48.5995 0.576172 48.735 0.576172H53.8929C54.0284 0.576172 54.0961 0.643746 54.0961 0.778896V20.4113Z" fill="#004450"/>
<path d="M66.9901 24.1359C66.9562 24.2372 66.9224 24.271 66.7869 24.271H63.0893C62.9876 24.271 62.8522 24.271 62.8522 24.0683L69.0939 0.711321C69.1278 0.609959 69.1617 0.576172 69.2633 0.576172H73.2339C73.3355 0.576172 73.4032 0.609959 73.4371 0.711321L79.647 24.0683C79.647 24.271 79.5454 24.271 79.4438 24.271H74.1842C74.0826 24.271 74.0148 24.2372 73.981 24.1359L73.2 21.258H67.7711L66.9901 24.1359ZM70.4845 10.7303L68.7871 17.3983H72.18L70.4845 10.7303Z" fill="#004450"/>
<path d="M95.7982 16.5874V18.3483C95.7982 22.681 93.288 24.273 88.638 24.273H81.5117C81.3762 24.273 81.3085 24.2054 81.3085 24.0703V0.778896C81.3085 0.643746 81.3762 0.576172 81.5117 0.576172H88.7735C92.4034 0.576172 94.8479 2.40466 94.8479 6.29616C94.8479 8.83419 93.7621 10.3248 92.3715 11.1377C94.306 11.8134 95.7982 13.3378 95.7982 16.5874ZM87.7913 9.37677C88.911 9.37677 89.6242 8.86996 89.6242 6.90632C89.6242 4.94268 88.911 4.43587 87.7913 4.43587H86.8749V9.37876H87.7913V9.37677ZM86.8749 20.4113H88.2316C89.4529 20.4113 90.2338 19.8011 90.2338 17.6686V15.9752C90.2338 13.8427 89.4529 13.2325 88.2316 13.2325H86.8749V20.4113Z" fill="#004450"/>
<path d="M113.139 18.2789C113.139 23.6611 108.999 24.8456 105.538 24.8456C102.078 24.8456 97.938 23.6611 97.938 18.2789V6.56666C97.936 1.18454 102.076 0 105.536 0C108.997 0 113.137 1.18454 113.137 6.56666V18.2789H113.139ZM105.536 3.8597C104.315 3.8597 103.5 4.40229 103.5 6.56865V18.2809C103.5 20.4473 104.315 20.9899 105.536 20.9899C106.758 20.9899 107.573 20.4473 107.573 18.2809V6.56666C107.573 4.4003 106.76 3.8597 105.536 3.8597Z" fill="#004450"/>
<path d="M122.775 0.576172C125.83 0.576172 129.121 2.0648 129.121 7.17662C129.121 10.2572 127.866 12.0181 126.202 12.9642L130.139 23.9311C130.173 24.0325 130.173 24.1001 130.173 24.1339C130.173 24.2352 130.105 24.269 129.97 24.269H124.676C124.608 24.269 124.541 24.2352 124.507 24.1339L121.317 13.7751H120.638V24.0663C120.638 24.2014 120.57 24.269 120.435 24.269H115.277C115.141 24.269 115.073 24.2014 115.073 24.0663V0.778896C115.073 0.643746 115.141 0.576172 115.277 0.576172H122.775ZM123.554 7.17662C123.554 5.04405 122.74 4.43389 121.518 4.43389H120.636V9.91737H121.518C122.742 9.91737 123.554 9.3092 123.554 7.17662Z" fill="#004450"/>
<path d="M135.397 24.1359C135.363 24.2372 135.329 24.271 135.193 24.271H131.494C131.392 24.271 131.257 24.271 131.257 24.0683L137.5 0.711321C137.534 0.609959 137.568 0.576172 137.67 0.576172H141.64C141.742 0.576172 141.81 0.609959 141.843 0.711321L148.053 24.0683C148.053 24.271 147.952 24.271 147.85 24.271H142.591C142.489 24.271 142.421 24.2372 142.387 24.1359L141.606 21.258H136.177L135.397 24.1359ZM138.893 10.7303L137.196 17.3983H140.588L138.893 10.7303Z" fill="#004450"/>
<path d="M157.08 4.43389V24.0663C157.08 24.2014 157.013 24.269 156.877 24.269H151.719C151.584 24.269 151.516 24.2014 151.516 24.0663V4.43389H146.46C146.324 4.43389 146.256 4.36631 146.256 4.23116V0.778896C146.256 0.643746 146.324 0.576172 146.46 0.576172H162.137C162.272 0.576172 162.34 0.643746 162.34 0.778896V4.23116C162.34 4.36631 162.272 4.43389 162.137 4.43389H157.08Z" fill="#004450"/>
<path d="M170.008 24.0683C170.008 24.2034 169.94 24.271 169.805 24.271H164.647C164.511 24.271 164.444 24.2034 164.444 24.0683V0.778896C164.444 0.643746 164.511 0.576172 164.647 0.576172H169.805C169.94 0.576172 170.008 0.643746 170.008 0.778896V24.0683Z" fill="#004450"/>
<path d="M188.536 0.576172C188.705 0.576172 188.739 0.677534 188.739 0.812683L182.496 24.1359C182.462 24.2372 182.394 24.271 182.292 24.271H178.322C178.254 24.271 178.186 24.2372 178.152 24.1359L171.909 0.778896C171.909 0.609959 171.976 0.576172 172.112 0.576172H177.405C177.507 0.576172 177.541 0.609959 177.575 0.711321L181.103 14.2859L184.597 0.711321C184.631 0.609959 184.665 0.576172 184.767 0.576172H188.536Z" fill="#004450"/>
<path d="M203.432 24.0683C203.432 24.2034 203.365 24.271 203.229 24.271H190.606C190.471 24.271 190.403 24.2034 190.403 24.0683V0.778896C190.403 0.643746 190.471 0.576172 190.606 0.576172H203.229C203.365 0.576172 203.432 0.643746 203.432 0.778896V4.23116C203.432 4.36631 203.365 4.43389 203.229 4.43389H195.967V9.37677H202.279C202.414 9.37677 202.482 9.44435 202.482 9.57949V13.0318C202.482 13.1669 202.414 13.2345 202.279 13.2345H195.967V20.4113H203.229C203.365 20.4113 203.432 20.4789 203.432 20.614V24.0683Z" fill="#004450"/>
<path d="M63.6471 50.7605C63.7825 50.7605 63.8503 50.8281 63.8503 50.9633V52.5195C63.8503 52.6546 63.7825 52.7222 63.6471 52.7222H56.6562C56.5207 52.7222 56.453 52.6546 56.453 52.5195V50.9633C56.453 50.8281 56.5207 50.7605 56.6562 50.7605H63.6471ZM62.7645 37.0509C62.9 37.0509 62.9677 37.1184 62.9677 37.2536V38.8098C62.9677 38.9449 62.9 39.0125 62.7645 39.0125H59.2362V41.4154H62.3242C62.4597 41.4154 62.5274 41.4829 62.5274 41.6181V43.1743C62.5274 43.3095 62.4597 43.377 62.3242 43.377H59.2362V48.6916C59.2362 48.8267 59.1685 48.8943 59.033 48.8943H56.6582C56.5227 48.8943 56.455 48.8267 56.455 48.6916V37.2496C56.455 37.1145 56.5227 37.0469 56.6582 37.0469H62.7645V37.0509Z" fill="#004450"/>
<path d="M72.3672 50.7605C72.5027 50.7605 72.5704 50.828 72.5704 50.9632V52.5194C72.5704 52.6545 72.5027 52.7221 72.3672 52.7221H63.0693C62.9338 52.7221 62.8661 52.6545 62.8661 52.5194V50.9632C62.8661 50.828 62.9338 50.7605 63.0693 50.7605H72.3672ZM63.918 40.1652C63.918 37.4224 65.988 36.8818 67.7192 36.8818C69.4505 36.8818 71.5205 37.4244 71.5205 40.1652V45.7838C71.5205 48.5265 69.4505 49.0671 67.7192 49.0671C65.988 49.0671 63.918 48.5245 63.918 45.7838V40.1652ZM66.7012 45.7838C66.7012 46.8332 67.1076 47.1035 67.7192 47.1035C68.3309 47.1035 68.7373 46.8332 68.7373 45.7838V40.1652C68.7373 39.1158 68.3309 38.8455 67.7192 38.8455C67.1076 38.8455 66.7012 39.1158 66.7012 40.1652V45.7838Z" fill="#004450"/>
<path d="M80.8841 50.7605C81.0195 50.7605 81.0873 50.8281 81.0873 50.9632V52.5194C81.0873 52.6546 81.0195 52.7221 80.8841 52.7221H71.9268C71.7914 52.7221 71.7236 52.6546 71.7236 52.5194V50.9632C71.7236 50.8281 71.7914 50.7605 71.9268 50.7605H80.8841ZM76.9474 37.0508C78.4734 37.0508 80.1031 37.7961 80.1031 40.3679C80.1031 41.9241 79.4576 42.7708 78.6448 43.2458L80.6131 48.6279C80.647 48.7293 80.647 48.7631 80.647 48.7968C80.647 48.8306 80.6131 48.8982 80.5115 48.8982H77.9674C77.8658 48.8982 77.7981 48.8306 77.7642 48.7293L76.2042 43.6512H75.8656V48.6955C75.8656 48.8306 75.7978 48.8982 75.6623 48.8982H73.2876C73.1521 48.8982 73.0844 48.8306 73.0844 48.6955V37.2535C73.0844 37.1184 73.1521 37.0508 73.2876 37.0508H76.9474ZM77.3219 40.3679C77.3219 39.2847 76.9155 39.0144 76.3039 39.0144H75.8636V41.6896H76.3039C76.9135 41.6876 77.3219 41.4173 77.3219 40.3679Z" fill="#004450"/>
<path d="M95.7126 42.2243C95.7126 42.0891 95.7803 42.0215 95.9158 42.0215H103.347C103.482 42.0215 103.55 42.0891 103.55 42.2243V53.3959C103.55 53.5649 103.516 53.5987 103.482 53.6662C101.855 55.6299 98.7328 56.4428 96.0851 56.4428C92.25 56.4428 88.4846 55.0893 88.4846 49.8085V38.2314C88.4846 32.9506 92.252 31.5972 96.119 31.5972C99.4102 31.5972 103.144 32.6128 103.686 37.0469C103.686 37.1482 103.652 37.2496 103.516 37.2834L98.5615 38.4341C98.426 38.4341 98.3583 38.4003 98.3583 38.2652C98.3583 36.2678 97.4757 35.4549 96.119 35.4549C94.8639 35.4549 94.049 36.065 94.049 38.2314V49.8085C94.049 51.9749 94.8639 52.585 96.0851 52.585C96.8661 52.585 97.4418 52.4161 97.9857 52.0425V45.8812H95.9158C95.7803 45.8812 95.7126 45.8137 95.7126 45.7123V42.2243Z" fill="#004450"/>
<path d="M119.295 55.6615C119.295 55.7967 119.227 55.8642 119.092 55.8642H106.469C106.333 55.8642 106.266 55.7967 106.266 55.6615V32.3741C106.266 32.239 106.333 32.1714 106.469 32.1714H119.092C119.227 32.1714 119.295 32.239 119.295 32.3741V35.8264C119.295 35.9615 119.227 36.0291 119.092 36.0291H111.83V40.972H118.142C118.277 40.972 118.345 41.0396 118.345 41.1747V44.627C118.345 44.7621 118.277 44.8297 118.142 44.8297H111.83V52.0065H119.092C119.227 52.0065 119.295 52.0741 119.295 52.2092V55.6615Z" fill="#004450"/>
<path d="M135.277 32.1694C135.412 32.1694 135.48 32.237 135.48 32.3722V55.6616C135.48 55.7967 135.412 55.8643 135.277 55.8643H131.34C131.171 55.8643 131.103 55.7629 131.069 55.6953L125.979 45.1338V55.6616C125.979 55.7967 125.911 55.8643 125.776 55.8643H122.044C121.909 55.8643 121.841 55.7967 121.841 55.6616V32.3741C121.841 32.239 121.909 32.1714 122.044 32.1714H125.947C126.049 32.1714 126.15 32.2052 126.218 32.3404L131.342 42.9019V32.3741C131.342 32.239 131.41 32.1714 131.545 32.1714H135.277V32.1694Z" fill="#004450"/>
<path d="M145.525 32.1694C149.394 32.1694 153.126 33.4553 153.126 38.7361V49.2976C153.126 54.5784 149.392 55.8643 145.525 55.8643H138.841C138.706 55.8643 138.638 55.7967 138.638 55.6616V32.3741C138.638 32.239 138.706 32.1714 138.841 32.1714H145.525V32.1694ZM147.561 38.7381C147.561 36.5717 146.746 36.0291 145.525 36.0291H144.202V52.0066H145.525C146.746 52.0066 147.561 51.464 147.561 49.2976V38.7381Z" fill="#004450"/>
<path d="M168.972 55.6615C168.972 55.7967 168.904 55.8642 168.769 55.8642H156.146C156.01 55.8642 155.943 55.7967 155.943 55.6615V32.3741C155.943 32.239 156.01 32.1714 156.146 32.1714H168.769C168.904 32.1714 168.972 32.239 168.972 32.3741V35.8264C168.972 35.9615 168.904 36.0291 168.769 36.0291H161.507V40.972H167.818C167.954 40.972 168.022 41.0396 168.022 41.1747V44.627C168.022 44.7621 167.954 44.8297 167.818 44.8297H161.507V52.0065H168.769C168.904 52.0065 168.972 52.0741 168.972 52.2092V55.6615Z" fill="#004450"/>
<path d="M179.22 32.1694C182.275 32.1694 185.566 33.6581 185.566 38.7699C185.566 41.8505 184.311 43.6114 182.647 44.5574L186.584 55.5244C186.618 55.6258 186.618 55.6933 186.618 55.7271C186.618 55.8285 186.55 55.8623 186.414 55.8623H181.121C181.053 55.8623 180.986 55.8285 180.952 55.7271L177.762 45.3683H177.083V55.6595C177.083 55.7947 177.015 55.8623 176.879 55.8623H171.722C171.586 55.8623 171.518 55.7947 171.518 55.6595V32.3741C171.518 32.239 171.586 32.1714 171.722 32.1714H179.22V32.1694ZM180.001 38.7719C180.001 36.6393 179.187 36.0291 177.965 36.0291H177.083V41.5126H177.965C179.187 41.5126 180.001 40.9044 180.001 38.7719Z" fill="#004450"/>
<path d="M198.181 36.3633C198.324 36.3633 198.396 36.4388 198.396 36.5879V41.4453H203.07C203.213 41.4453 203.285 41.5208 203.285 41.6699V44.2099C203.285 44.359 203.213 44.4345 203.07 44.4345H198.396V49.2919C198.396 49.441 198.324 49.5165 198.181 49.5165H195.736C195.593 49.5165 195.521 49.441 195.521 49.2919V44.4345H190.847C190.704 44.4345 190.632 44.359 190.632 44.2099V41.6699C190.632 41.5208 190.704 41.4453 190.847 41.4453H195.521V36.5879C195.521 36.4388 195.593 36.3633 195.736 36.3633H198.181Z" fill="#004450"/>
<path d="M20.6719 63.7646C23.7261 63.7646 27.0173 65.2533 27.0173 70.3651C27.0173 73.4457 25.7622 75.2066 24.0986 76.1527L28.0354 87.1196C28.0692 87.221 28.0692 87.2886 28.0692 87.3223C28.0692 87.4237 28.0015 87.4575 27.866 87.4575H22.5726C22.5048 87.4575 22.4371 87.4237 22.4032 87.3223L19.2136 76.9636H18.5342V87.2548C18.5342 87.3899 18.4665 87.4575 18.331 87.4575H13.1731C13.0376 87.4575 12.9698 87.3899 12.9698 87.2548V63.9674C12.9698 63.8322 13.0376 63.7646 13.1731 63.7646H20.6719ZM21.4529 70.3651C21.4529 68.2325 20.6381 67.6224 19.4168 67.6224H18.5342V73.1058H19.4168C20.6381 73.1078 21.4529 72.4977 21.4529 70.3651Z" fill="#004450"/>
<path d="M42.9315 87.2568C42.9315 87.3919 42.8638 87.4595 42.7283 87.4595H30.1053C29.9698 87.4595 29.9021 87.3919 29.9021 87.2568V63.9674C29.9021 63.8322 29.9698 63.7646 30.1053 63.7646H42.7283C42.8638 63.7646 42.9315 63.8322 42.9315 63.9674V67.4196C42.9315 67.5548 42.8638 67.6224 42.7283 67.6224H35.4665V72.5652H41.778C41.9135 72.5652 41.9812 72.6328 41.9812 72.768V76.2202C41.9812 76.3554 41.9135 76.423 41.778 76.423H35.4665V83.5998H42.7283C42.8638 83.5998 42.9315 83.6674 42.9315 83.8025V87.2568Z" fill="#004450"/>
<path d="M53.1796 63.7646C56.2338 63.7646 59.525 65.2533 59.525 70.3651C59.525 75.4769 56.2338 76.9655 53.1796 76.9655H51.0419V87.2568C51.0419 87.3919 50.9742 87.4595 50.8387 87.4595H45.6808C45.5453 87.4595 45.4775 87.3919 45.4775 87.2568V63.9674C45.4775 63.8322 45.5453 63.7646 45.6808 63.7646H53.1796ZM53.9586 70.3651C53.9586 68.2325 53.1438 67.6224 51.9225 67.6224H51.0399V73.1058H51.9225C53.1458 73.1078 53.9586 72.4977 53.9586 70.3651Z" fill="#004450"/>
<path d="M69.5003 63.7646C72.5545 63.7646 75.8457 65.2533 75.8457 70.3651C75.8457 73.4457 74.5906 75.2066 72.927 76.1527L76.8637 87.1196C76.8976 87.221 76.8976 87.2886 76.8976 87.3223C76.8976 87.4237 76.8299 87.4575 76.6944 87.4575H71.4009C71.3332 87.4575 71.2655 87.4237 71.2316 87.3223L68.042 76.9636H67.3626V87.2548C67.3626 87.3899 67.2949 87.4575 67.1594 87.4575H62.0014C61.866 87.4575 61.7982 87.3899 61.7982 87.2548V63.9674C61.7982 63.8322 61.866 63.7646 62.0014 63.7646H69.5003ZM70.2813 70.3651C70.2813 68.2325 69.4664 67.6224 68.2452 67.6224H67.3626V73.1058H68.2452C69.4664 73.1078 70.2813 72.4977 70.2813 70.3651Z" fill="#004450"/>
<path d="M93.3557 81.4694C93.3557 86.8515 89.2157 88.036 85.7552 88.036C82.2946 88.036 78.1547 86.8515 78.1547 81.4694V69.7571C78.1547 64.375 82.2946 63.1904 85.7552 63.1904C89.2157 63.1904 93.3557 64.375 93.3557 69.7571V81.4694ZM85.7552 67.0481C84.5339 67.0481 83.7191 67.5907 83.7191 69.7571V81.4694C83.7191 83.6357 84.5339 84.1783 85.7552 84.1783C86.9764 84.1783 87.7913 83.6357 87.7913 81.4694V69.7571C87.7913 67.5907 86.9764 67.0481 85.7552 67.0481Z" fill="#004450"/>
<path d="M102.857 63.7646C106.726 63.7646 110.457 65.0506 110.457 70.3313V80.8928C110.457 86.1736 106.724 87.4595 102.857 87.4595H96.1727C96.0372 87.4595 95.9695 87.3919 95.9695 87.2568V63.9674C95.9695 63.8322 96.0372 63.7646 96.1727 63.7646H102.857ZM104.893 70.3313C104.893 68.1649 104.078 67.6224 102.857 67.6224H101.534V83.5998H102.857C104.078 83.5998 104.893 83.0572 104.893 80.8908V70.3313Z" fill="#004450"/>
<path d="M113.173 82.0436V63.9674C113.173 63.8322 113.241 63.7646 113.376 63.7646H118.534C118.67 63.7646 118.737 63.8322 118.737 63.9674V81.4334C118.737 83.5998 119.518 84.1762 120.739 84.1762C121.961 84.1762 122.776 83.5998 122.776 81.4334V63.9674C122.776 63.8322 122.843 63.7646 122.979 63.7646H126.848C126.983 63.7646 127.051 63.8322 127.051 63.9674V82.0436C127.051 86.7818 123.692 88.0359 120.128 88.0359C116.464 88.0359 113.173 86.7837 113.173 82.0436Z" fill="#004450"/>
<path d="M135.126 81.4018C135.126 83.5682 135.94 84.1783 137.162 84.1783C138.518 84.1783 139.401 83.3654 139.401 81.368C139.401 81.2329 139.469 81.1991 139.604 81.1991L144.559 82.3498C144.694 82.3836 144.728 82.485 144.728 82.5863C144.186 87.0204 140.453 88.036 137.162 88.036C133.327 88.036 129.561 86.6826 129.561 81.4018V69.8247C129.561 64.5439 133.329 63.1904 137.162 63.1904C140.453 63.1904 144.186 64.206 144.728 68.6401C144.728 68.7415 144.694 68.8428 144.559 68.8766L139.604 70.0274C139.469 70.0274 139.401 69.9936 139.401 69.8585C139.401 67.861 138.518 67.0481 137.162 67.0481C135.94 67.0481 135.126 67.6583 135.126 69.8247V81.4018Z" fill="#004450"/>
<path d="M157.08 67.6243V87.2567C157.08 87.3919 157.013 87.4595 156.877 87.4595H151.719C151.584 87.4595 151.516 87.3919 151.516 87.2567V67.6243H146.46C146.324 67.6243 146.256 67.5567 146.256 67.4216V63.9693C146.256 63.8342 146.324 63.7666 146.46 63.7666H162.137C162.272 63.7666 162.34 63.8342 162.34 63.9693V67.4216C162.34 67.5567 162.272 67.6243 162.137 67.6243H157.08Z" fill="#004450"/>
<path d="M170.008 87.2568C170.008 87.3919 169.94 87.4595 169.805 87.4595H164.647C164.511 87.4595 164.444 87.3919 164.444 87.2568V63.9674C164.444 63.8322 164.511 63.7646 164.647 63.7646H169.805C169.94 63.7646 170.008 63.8322 170.008 63.9674V87.2568Z" fill="#004450"/>
<path d="M188.536 63.7646C188.705 63.7646 188.739 63.866 188.739 64.0012L182.496 87.3243C182.462 87.4257 182.394 87.4595 182.292 87.4595H178.322C178.254 87.4595 178.186 87.4257 178.152 87.3243L171.909 63.9674C171.909 63.7984 171.976 63.7646 172.112 63.7646H177.405C177.507 63.7646 177.541 63.7984 177.575 63.8998L181.103 77.4743L184.597 63.8998C184.631 63.7984 184.665 63.7646 184.767 63.7646H188.536Z" fill="#004450"/>
<path d="M203.432 87.2568C203.432 87.3919 203.365 87.4595 203.229 87.4595H190.606C190.471 87.4595 190.403 87.3919 190.403 87.2568V63.9674C190.403 63.8322 190.471 63.7646 190.606 63.7646H203.229C203.365 63.7646 203.432 63.8322 203.432 63.9674V67.4196C203.432 67.5548 203.365 67.6224 203.229 67.6224H195.967V72.5652H202.279C202.414 72.5652 202.482 72.6328 202.482 72.768V76.2202C202.482 76.3554 202.414 76.423 202.279 76.423H195.967V83.5998H203.229C203.365 83.5998 203.432 83.6674 203.432 83.8025V87.2568Z" fill="#004450"/>
<path d="M126.236 118.852C126.236 118.987 126.168 119.055 126.033 119.055H113.41C113.274 119.055 113.207 118.987 113.207 118.852V95.5626C113.207 95.4274 113.274 95.3599 113.41 95.3599H126.033C126.168 95.3599 126.236 95.4274 126.236 95.5626V99.0149C126.236 99.15 126.168 99.2176 126.033 99.2176H118.771V104.16H125.083C125.218 104.16 125.286 104.228 125.286 104.363V107.815C125.286 107.951 125.218 108.018 125.083 108.018H118.771V115.195H126.033C126.168 115.195 126.236 115.263 126.236 115.398V118.852Z" fill="#004450"/>
<path d="M143.473 113.065C143.473 115.569 142.557 117.195 141.234 118.21L143.507 121.696C143.541 121.764 143.575 121.831 143.575 121.865C143.575 121.967 143.507 122 143.372 122H139.028C138.927 122 138.893 121.967 138.825 121.865L137.57 119.53C136.992 119.597 136.417 119.631 135.873 119.631C132.412 119.631 128.272 118.413 128.272 113.065V101.352C128.272 95.9702 132.412 94.7856 135.873 94.7856C139.333 94.7856 143.473 95.9702 143.473 101.352V113.065ZM133.837 113.065C133.837 115.231 134.651 115.774 135.873 115.774C137.094 115.774 137.909 115.231 137.909 113.065V101.352C137.909 99.1859 137.094 98.6434 135.873 98.6434C134.651 98.6434 133.837 99.1859 133.837 101.352V113.065Z" fill="#004450"/>
<path d="M145.645 113.639V95.5626C145.645 95.4274 145.713 95.3599 145.848 95.3599H151.006C151.141 95.3599 151.209 95.4274 151.209 95.5626V113.029C151.209 115.195 151.99 115.771 153.211 115.771C154.433 115.771 155.247 115.195 155.247 113.029V95.5626C155.247 95.4274 155.315 95.3599 155.451 95.3599H159.32C159.455 95.3599 159.523 95.4274 159.523 95.5626V113.639C159.523 118.377 156.164 119.631 152.6 119.631C148.936 119.631 145.645 118.379 145.645 113.639Z" fill="#004450"/>
<path d="M167.701 118.852C167.701 118.987 167.633 119.055 167.498 119.055H162.34C162.204 119.055 162.137 118.987 162.137 118.852V95.5626C162.137 95.4274 162.204 95.3599 162.34 95.3599H167.498C167.633 95.3599 167.701 95.4274 167.701 95.5626V118.852Z" fill="#004450"/>
<path d="M180.798 99.2196V118.852C180.798 118.987 180.731 119.055 180.595 119.055H175.437C175.302 119.055 175.234 118.987 175.234 118.852V99.2176H170.18C170.044 99.2176 169.976 99.15 169.976 99.0149V95.5626C169.976 95.4274 170.044 95.3599 170.18 95.3599H185.857C185.992 95.3599 186.06 95.4274 186.06 95.5626V99.0149C186.06 99.15 185.992 99.2176 185.857 99.2176H180.798V99.2196Z" fill="#004450"/>
<path d="M204.042 95.3599C204.211 95.3599 204.279 95.4274 204.279 95.495C204.279 95.5626 204.245 95.6302 204.245 95.6302L198.613 109.137V118.852C198.613 118.987 198.545 119.055 198.41 119.055H193.252C193.116 119.055 193.049 118.987 193.049 118.852V109.137L187.383 95.6302C187.383 95.6302 187.349 95.5626 187.349 95.495C187.349 95.3937 187.417 95.3599 187.552 95.3599H192.812C192.947 95.3599 193.015 95.3937 193.049 95.495L196.509 104.431L200.071 95.495C200.105 95.3937 200.173 95.3599 200.275 95.3599H204.042Z" fill="#004450"/>
</g>
<defs>
<clipPath id="clip0">
<rect width="204" height="122" fill="white" transform="translate(0.279053)"/>
</clipPath>
</defs>
</svg>
